# xmcd
#
# Track frame offsets:
#        150
#        13223
#        27975
#        43004
#        59696
#        71602
#        88533
#        99822
#        119296
#        137452
#
# Disc length: 2109 seconds
#
# Revision: 0
# Processed by: cddbd v1.5.1PL2 Copyright (c) Steve Scherf et al.
# Submitted via: ExactAudioCopy v0.95b3
#
DISCID=81083b0a
DTITLE=Howdy Moon - Howdy Moon
DYEAR=1974
DGENRE=Rock
TTITLE0=Lovelight
TTITLE1=Cheyenne Autumn
TTITLE2=I'm Alone
TTITLE3=Nora Lee
TTITLE4=And You Never Knew
TTITLE5=Machine
TTITLE6=Cook With Honey
TTITLE7=For Tonight
TTITLE8=For Tonight
TTITLE9=Millsstream
EXTD=
EXTT0=
EXTT1=
EXTT2=
EXTT3=
EXTT4=
EXTT5=
EXTT6=
EXTT7=
EXTT8=
EXTT9=
PLAYORDER=
